<?xml version="1.0" ?><!DOCTYPE svg  PUBLIC '-//W3C//DTD SVG 1.1//EN'  'http://www.w3.org/Graphics/SVG/1.1/DTD/svg11.dtd'><svg enable-background="new 0 0 512 512" height="512px" id="Layer_1" version="1.1" viewBox="0 0 512 512" width="512px" xml:space="preserve" xmlns="http://www.w3.org/2000/svg" xmlns:xlink="http://www.w3.org/1999/xlink"><g id="cv_x5F_portfolio_x5F_document"><path d="M386.507,15H157v-0.277L78.493,93.229V452c0,24.75,20.25,45,45,45h263.014c24.75,0,45-20.25,45-45V60   C431.507,35.25,411.257,15,386.507,15z M411.507,452c0,13.785-11.215,25-25,25H123.493c-13.785,0-25-11.215-25-25V93H157V35   h229.507c13.785,0,25,11.215,25,25V452z" fill="#2B2B28"/><g><path d="M287.235,82.495c-6.405,0-11.364,2.407-14.878,7.22c-3.514,4.813-5.271,11.521-5.271,20.121    c0,17.897,6.716,26.846,20.148,26.846c5.636,0,12.462-1.409,20.478-4.228v14.274c-6.588,2.745-13.944,4.118-22.07,4.118    c-11.676,0-20.606-3.541-26.791-10.624c-6.186-7.082-9.278-17.247-9.278-30.497c0-8.345,1.519-15.655,4.557-21.933    c3.038-6.276,7.402-11.09,13.094-14.438c5.691-3.349,12.361-5.023,20.012-5.023c7.796,0,15.628,1.885,23.497,5.655l-5.49,13.835    c-3.001-1.428-6.021-2.671-9.059-3.733C293.146,83.026,290.163,82.495,287.235,82.495z" fill="#2B2B28"/><path d="M370.574,69.484h17.185l-27.286,80.265h-18.557l-27.23-80.265h17.184l15.098,47.764    c0.842,2.818,1.711,6.103,2.608,9.854c0.896,3.752,1.454,6.36,1.674,7.823c0.402-3.367,1.775-9.259,4.118-17.678L370.574,69.484z" fill="#2B2B28"/></g><path d="M383.484,221.922c0,3.131-2.538,5.669-5.669,5.669H134.167c-3.131,0-5.669-2.538-5.669-5.669v-11.16   c0-3.131,2.538-5.669,5.669-5.669h243.649c3.131,0,5.669,2.538,5.669,5.669V221.922z" fill="#2B2B28"/><path d="M383.484,277.045c0,3.132-2.538,5.669-5.669,5.669H134.167c-3.131,0-5.669-2.537-5.669-5.669v-11.159   c0-3.132,2.538-5.67,5.669-5.67h243.649c3.131,0,5.669,2.538,5.669,5.67V277.045z" fill="#2B2B28"/><path d="M383.484,332.167c0,3.132-2.538,5.669-5.669,5.669H134.167c-3.131,0-5.669-2.537-5.669-5.669v-11.159   c0-3.132,2.538-5.67,5.669-5.67h243.649c3.131,0,5.669,2.538,5.669,5.67V332.167z" fill="#2B2B28"/><path d="M383.484,387.289c0,3.131-2.538,5.669-5.669,5.669H134.167c-3.131,0-5.669-2.538-5.669-5.669v-11.16   c0-3.131,2.538-5.67,5.669-5.67h243.649c3.131,0,5.669,2.539,5.669,5.67V387.289z" fill="#2B2B28"/><path d="M383.484,442.411c0,3.132-2.538,5.669-5.669,5.669H134.167c-3.131,0-5.669-2.537-5.669-5.669v-11.159   c0-3.132,2.538-5.67,5.669-5.67h243.649c3.131,0,5.669,2.538,5.669,5.67V442.411z" fill="#2B2B28"/></g></svg>