<?xml version="1.0" standalone="no"?>
<!DOCTYPE svg PUBLIC "-//W3C//DTD SVG 20010904//EN"
 "http://www.w3.org/TR/2001/REC-SVG-20010904/DTD/svg10.dtd">
<svg version="1.0" xmlns="http://www.w3.org/2000/svg"
 width="512.000000pt" height="512.000000pt" viewBox="0 0 512.000000 512.000000"
 preserveAspectRatio="xMidYMid meet">
<metadata>
Created by potrace 1.13, written by Peter Selinger 2001-2015
</metadata>
<g transform="translate(0.000000,512.000000) scale(0.100000,-0.100000)"
fill="#000000" stroke="none">
<path d="M1172 4577 l-392 -393 2 -1830 c3 -1821 3 -1829 24 -1889 52 -152
167 -260 319 -300 52 -13 230 -15 1425 -15 1491 0 1423 -3 1532 57 55 30 130
101 164 155 13 20 34 65 46 100 l23 63 0 2035 0 2035 -23 63 c-55 154 -167
257 -317 297 -52 13 -211 15 -1235 15 l-1175 0 -393 -393z m2803 166 c22 -12
54 -36 72 -55 68 -71 63 104 63 -2128 0 -2232 5 -2057 -63 -2128 -18 -19 -50
-43 -72 -55 l-40 -22 -1385 0 -1385 0 -40 22 c-52 28 -99 78 -122 128 -17 38
-18 132 -21 1863 l-2 1822 295 0 295 0 0 290 0 290 1183 -2 1182 -3 40 -22z"/>
<path d="M2780 4427 c-30 -7 -74 -23 -96 -35 -57 -29 -128 -112 -156 -180 -20
-50 -23 -74 -23 -197 1 -121 4 -148 23 -196 32 -80 88 -140 164 -175 57 -26
73 -28 168 -28 70 0 124 6 163 17 l57 18 0 70 c0 69 -1 71 -22 65 -13 -3 -59
-13 -102 -22 -136 -28 -213 2 -259 104 -18 39 -22 66 -22 152 0 93 3 112 26
161 15 31 40 65 56 77 60 43 148 45 238 7 21 -8 43 -15 50 -15 6 0 23 29 38
65 l25 65 -35 15 c-91 38 -210 51 -293 32z"/>
<path d="M3150 4422 c0 -4 60 -185 134 -402 l134 -395 93 0 94 0 132 385 c72
212 132 393 132 403 1 16 -8 18 -81 15 l-82 -3 -74 -230 c-41 -126 -84 -270
-97 -320 l-23 -90 -12 45 c-23 91 -44 160 -111 373 -38 120 -69 220 -69 223 0
2 -38 4 -85 4 -47 0 -85 -3 -85 -8z"/>
<path d="M1306 3054 c-22 -22 -29 -56 -24 -121 9 -103 -126 -93 1277 -93 1094
0 1229 2 1249 16 20 14 22 24 22 99 0 63 -4 88 -16 99 -14 14 -141 16 -1254
16 -1112 0 -1240 -2 -1254 -16z"/>
<path d="M1300 2493 c-19 -24 -21 -38 -18 -97 7 -118 -140 -106 1277 -106
1094 0 1229 2 1249 16 20 14 22 24 22 98 0 68 -3 86 -18 99 -17 16 -118 17
-1255 17 l-1236 0 -21 -27z"/>
<path d="M1309 1951 c-19 -15 -24 -30 -27 -87 -3 -59 -1 -73 18 -96 l21 -28
1238 0 c1430 0 1271 -15 1271 118 0 72 -2 83 -22 96 -20 14 -155 16 -1249 16
-1186 0 -1228 -1 -1250 -19z"/>
<path d="M1309 1401 c-22 -17 -24 -27 -24 -101 0 -69 3 -84 19 -96 17 -12 204
-14 1257 -14 1112 0 1239 2 1253 16 12 11 16 36 16 99 0 75 -2 85 -22 99 -20
14 -155 16 -1249 16 -1193 0 -1227 -1 -1250 -19z"/>
<path d="M1299 843 c-9 -10 -14 -43 -14 -95 0 -67 3 -82 19 -94 17 -12 204
-14 1254 -14 831 0 1240 3 1253 10 17 9 19 22 19 98 0 55 -4 92 -12 100 -9 9
-302 12 -1259 12 -1147 0 -1248 -1 -1260 -17z"/>
</g>
</svg>
